<mxfile host="Electron" agent="Mozilla/5.0 (X11; Linux x86_64) AppleWebKit/537.36 (KHTML, like Gecko) draw.io/27.0.9 Chrome/134.0.6998.205 Electron/35.4.0 Safari/537.36" version="27.0.9">
  <diagram name="Page-1" id="DdPX-0fn54yQtwV31NAH">
    <mxGraphModel dx="938" dy="1021" grid="1" gridSize="10" guides="1" tooltips="1" connect="1" arrows="1" fold="1" page="1" pageScale="1" pageWidth="850" pageHeight="1100" math="1" shadow="0">
      <root>
        <mxCell id="0" />
        <mxCell id="1" parent="0" />
        <mxCell id="gGYGPIAYJn1vgxBrWItn-5" value="" style="endArrow=blockThin;html=1;rounded=0;endFill=1;strokeWidth=2;" parent="1" edge="1">
          <mxGeometry width="50" height="50" relative="1" as="geometry">
            <mxPoint x="711" y="290" as="sourcePoint" />
            <mxPoint x="711" y="160" as="targetPoint" />
          </mxGeometry>
        </mxCell>
        <mxCell id="gGYGPIAYJn1vgxBrWItn-1" value="" style="endArrow=blockThin;html=1;rounded=0;endFill=1;strokeWidth=2;" parent="1" edge="1">
          <mxGeometry width="50" height="50" relative="1" as="geometry">
            <mxPoint x="551" y="280" as="sourcePoint" />
            <mxPoint x="871" y="280" as="targetPoint" />
          </mxGeometry>
        </mxCell>
        <mxCell id="gGYGPIAYJn1vgxBrWItn-2" value="" style="endArrow=none;html=1;rounded=0;strokeWidth=4;strokeColor=#EA6B66;" parent="1" edge="1">
          <mxGeometry width="50" height="50" relative="1" as="geometry">
            <mxPoint x="631" y="280" as="sourcePoint" />
            <mxPoint x="631" y="200" as="targetPoint" />
          </mxGeometry>
        </mxCell>
        <mxCell id="gGYGPIAYJn1vgxBrWItn-3" value="" style="endArrow=none;html=1;rounded=0;strokeWidth=4;strokeColor=#EA6B66;" parent="1" edge="1">
          <mxGeometry width="50" height="50" relative="1" as="geometry">
            <mxPoint x="791" y="200" as="sourcePoint" />
            <mxPoint x="631" y="200" as="targetPoint" />
          </mxGeometry>
        </mxCell>
        <mxCell id="gGYGPIAYJn1vgxBrWItn-4" value="" style="endArrow=none;html=1;rounded=0;strokeWidth=4;strokeColor=#EA6B66;" parent="1" edge="1">
          <mxGeometry width="50" height="50" relative="1" as="geometry">
            <mxPoint x="791" y="280" as="sourcePoint" />
            <mxPoint x="791" y="200" as="targetPoint" />
          </mxGeometry>
        </mxCell>
        <mxCell id="gGYGPIAYJn1vgxBrWItn-7" value="&lt;font style=&quot;font-size: 16px;&quot;&gt;$$\frac{f_s}{2}$$&lt;/font&gt;" style="text;html=1;align=center;verticalAlign=middle;whiteSpace=wrap;rounded=0;" parent="1" vertex="1">
          <mxGeometry x="761" y="290" width="60" height="30" as="geometry" />
        </mxCell>
        <mxCell id="gGYGPIAYJn1vgxBrWItn-8" value="&lt;font style=&quot;font-size: 16px;&quot;&gt;$$-\frac{f_s}{2}$$&lt;/font&gt;" style="text;html=1;align=center;verticalAlign=middle;whiteSpace=wrap;rounded=0;" parent="1" vertex="1">
          <mxGeometry x="601" y="290" width="60" height="30" as="geometry" />
        </mxCell>
        <mxCell id="gGYGPIAYJn1vgxBrWItn-9" value="&lt;font style=&quot;font-size: 16px;&quot;&gt;$$0$$&lt;/font&gt;" style="text;html=1;align=center;verticalAlign=middle;whiteSpace=wrap;rounded=0;" parent="1" vertex="1">
          <mxGeometry x="691" y="280" width="60" height="30" as="geometry" />
        </mxCell>
        <mxCell id="gGYGPIAYJn1vgxBrWItn-10" value="&lt;font style=&quot;font-size: 16px;&quot;&gt;$$f$$&lt;/font&gt;" style="text;html=1;align=center;verticalAlign=middle;whiteSpace=wrap;rounded=0;" parent="1" vertex="1">
          <mxGeometry x="831" y="285" width="60" height="30" as="geometry" />
        </mxCell>
        <mxCell id="gGYGPIAYJn1vgxBrWItn-11" value="&lt;font style=&quot;font-size: 16px;&quot;&gt;$$T_s$$&lt;/font&gt;" style="text;html=1;align=center;verticalAlign=middle;whiteSpace=wrap;rounded=0;" parent="1" vertex="1">
          <mxGeometry x="581" y="180" width="60" height="30" as="geometry" />
        </mxCell>
        <mxCell id="gGYGPIAYJn1vgxBrWItn-12" value="" style="endArrow=blockThin;html=1;rounded=0;endFill=1;strokeWidth=2;" parent="1" edge="1">
          <mxGeometry width="50" height="50" relative="1" as="geometry">
            <mxPoint x="240" y="290" as="sourcePoint" />
            <mxPoint x="240" y="170" as="targetPoint" />
          </mxGeometry>
        </mxCell>
        <mxCell id="gGYGPIAYJn1vgxBrWItn-13" value="" style="endArrow=blockThin;html=1;rounded=0;endFill=1;strokeWidth=2;" parent="1" edge="1">
          <mxGeometry width="50" height="50" relative="1" as="geometry">
            <mxPoint x="30" y="280" as="sourcePoint" />
            <mxPoint x="470" y="280" as="targetPoint" />
          </mxGeometry>
        </mxCell>
        <mxCell id="gGYGPIAYJn1vgxBrWItn-19" value="&lt;font style=&quot;font-size: 16px;&quot;&gt;$$0$$&lt;/font&gt;" style="text;html=1;align=center;verticalAlign=middle;whiteSpace=wrap;rounded=0;" parent="1" vertex="1">
          <mxGeometry x="220" y="280" width="60" height="30" as="geometry" />
        </mxCell>
        <mxCell id="gGYGPIAYJn1vgxBrWItn-20" value="&lt;font style=&quot;font-size: 16px;&quot;&gt;$$t$$&lt;/font&gt;" style="text;html=1;align=center;verticalAlign=middle;whiteSpace=wrap;rounded=0;" parent="1" vertex="1">
          <mxGeometry x="428" y="280" width="60" height="30" as="geometry" />
        </mxCell>
        <mxCell id="gGYGPIAYJn1vgxBrWItn-35" value="&lt;font style=&quot;font-size: 20px;&quot;&gt;$$\mathcal{F}$$&lt;/font&gt;" style="text;html=1;align=center;verticalAlign=middle;whiteSpace=wrap;rounded=0;flipH=0;" parent="1" vertex="1">
          <mxGeometry x="479" y="205" width="60" height="30" as="geometry" />
        </mxCell>
        <mxCell id="gGYGPIAYJn1vgxBrWItn-37" value="" style="shape=flexArrow;endArrow=classic;html=1;rounded=0;" parent="1" edge="1">
          <mxGeometry width="50" height="50" relative="1" as="geometry">
            <mxPoint x="480" y="238" as="sourcePoint" />
            <mxPoint x="550" y="238" as="targetPoint" />
          </mxGeometry>
        </mxCell>
        <mxCell id="gGYGPIAYJn1vgxBrWItn-34" value="&lt;font style=&quot;font-size: 16px;&quot;&gt;&lt;b&gt;$$1$$&lt;/b&gt;&lt;/font&gt;" style="text;html=1;align=center;verticalAlign=middle;whiteSpace=wrap;rounded=0;" parent="1" vertex="1">
          <mxGeometry x="187" y="185" width="60" height="30" as="geometry" />
        </mxCell>
        <mxCell id="0YUcNJQHqm-_WN3B-KmG-1" value="" style="group" vertex="1" connectable="0" parent="1">
          <mxGeometry x="40" y="200" width="200" height="110" as="geometry" />
        </mxCell>
        <mxCell id="gGYGPIAYJn1vgxBrWItn-26" value="" style="endArrow=none;html=1;rounded=0;strokeWidth=4;strokeColor=#82b366;fillColor=#d5e8d4;" parent="0YUcNJQHqm-_WN3B-KmG-1" edge="1">
          <mxGeometry width="50" height="50" relative="1" as="geometry">
            <mxPoint x="110" y="110" as="sourcePoint" />
            <mxPoint x="200" as="targetPoint" />
          </mxGeometry>
        </mxCell>
        <mxCell id="gGYGPIAYJn1vgxBrWItn-27" value="" style="endArrow=none;html=1;rounded=0;strokeWidth=4;strokeColor=#82b366;fillColor=#d5e8d4;" parent="0YUcNJQHqm-_WN3B-KmG-1" edge="1">
          <mxGeometry width="50" height="50" relative="1" as="geometry">
            <mxPoint x="60" y="60" as="sourcePoint" />
            <mxPoint x="110" y="110" as="targetPoint" />
          </mxGeometry>
        </mxCell>
        <mxCell id="gGYGPIAYJn1vgxBrWItn-28" value="" style="endArrow=none;html=1;rounded=0;strokeWidth=4;strokeColor=#82b366;fillColor=#d5e8d4;" parent="0YUcNJQHqm-_WN3B-KmG-1" edge="1">
          <mxGeometry width="50" height="50" relative="1" as="geometry">
            <mxPoint x="60" y="60" as="sourcePoint" />
            <mxPoint y="90" as="targetPoint" />
          </mxGeometry>
        </mxCell>
        <mxCell id="gGYGPIAYJn1vgxBrWItn-29" value="&lt;font style=&quot;font-size: 16px;&quot;&gt;$$-2T_s$$&lt;/font&gt;" style="text;html=1;align=center;verticalAlign=middle;whiteSpace=wrap;rounded=0;" parent="0YUcNJQHqm-_WN3B-KmG-1" vertex="1">
          <mxGeometry x="30" y="80" width="60" height="30" as="geometry" />
        </mxCell>
        <mxCell id="gGYGPIAYJn1vgxBrWItn-18" value="&lt;font style=&quot;font-size: 16px;&quot;&gt;$$-T_s$$&lt;/font&gt;" style="text;html=1;align=center;verticalAlign=middle;whiteSpace=wrap;rounded=0;" parent="0YUcNJQHqm-_WN3B-KmG-1" vertex="1">
          <mxGeometry x="120" y="80" width="60" height="30" as="geometry" />
        </mxCell>
        <mxCell id="0YUcNJQHqm-_WN3B-KmG-6" value="&lt;font style=&quot;font-size: 16px;&quot;&gt;$$-3T_s$$&lt;/font&gt;" style="text;html=1;align=center;verticalAlign=middle;whiteSpace=wrap;rounded=0;" vertex="1" parent="0YUcNJQHqm-_WN3B-KmG-1">
          <mxGeometry x="-30" y="50" width="60" height="30" as="geometry" />
        </mxCell>
        <mxCell id="0YUcNJQHqm-_WN3B-KmG-2" value="" style="group;flipH=1;" vertex="1" connectable="0" parent="1">
          <mxGeometry x="240" y="200" width="230" height="110" as="geometry" />
        </mxCell>
        <mxCell id="0YUcNJQHqm-_WN3B-KmG-3" value="" style="endArrow=none;html=1;rounded=0;strokeWidth=4;strokeColor=#82b366;fillColor=#d5e8d4;" edge="1" parent="0YUcNJQHqm-_WN3B-KmG-2">
          <mxGeometry width="50" height="50" relative="1" as="geometry">
            <mxPoint x="90" y="110" as="sourcePoint" />
            <mxPoint as="targetPoint" />
          </mxGeometry>
        </mxCell>
        <mxCell id="0YUcNJQHqm-_WN3B-KmG-4" value="" style="endArrow=none;html=1;rounded=0;strokeWidth=4;strokeColor=#82b366;fillColor=#d5e8d4;" edge="1" parent="0YUcNJQHqm-_WN3B-KmG-2">
          <mxGeometry width="50" height="50" relative="1" as="geometry">
            <mxPoint x="140" y="60" as="sourcePoint" />
            <mxPoint x="90" y="110" as="targetPoint" />
          </mxGeometry>
        </mxCell>
        <mxCell id="0YUcNJQHqm-_WN3B-KmG-5" value="" style="endArrow=none;html=1;rounded=0;strokeWidth=4;strokeColor=#82b366;fillColor=#d5e8d4;" edge="1" parent="0YUcNJQHqm-_WN3B-KmG-2">
          <mxGeometry width="50" height="50" relative="1" as="geometry">
            <mxPoint x="140" y="60" as="sourcePoint" />
            <mxPoint x="200" y="90" as="targetPoint" />
          </mxGeometry>
        </mxCell>
        <mxCell id="gGYGPIAYJn1vgxBrWItn-31" value="&lt;font style=&quot;font-size: 16px;&quot;&gt;$$T_s$$&lt;/font&gt;" style="text;html=1;align=center;verticalAlign=middle;whiteSpace=wrap;rounded=0;flipH=0;" parent="0YUcNJQHqm-_WN3B-KmG-2" vertex="1">
          <mxGeometry x="30" y="80" width="60" height="30" as="geometry" />
        </mxCell>
        <mxCell id="gGYGPIAYJn1vgxBrWItn-32" value="&lt;font style=&quot;font-size: 16px;&quot;&gt;$$2T_s$$&lt;/font&gt;" style="text;html=1;align=center;verticalAlign=middle;whiteSpace=wrap;rounded=0;flipH=0;" parent="0YUcNJQHqm-_WN3B-KmG-2" vertex="1">
          <mxGeometry x="100" y="80" width="60" height="30" as="geometry" />
        </mxCell>
        <mxCell id="gGYGPIAYJn1vgxBrWItn-33" value="&lt;font style=&quot;font-size: 16px;&quot;&gt;$$3T_s$$&lt;/font&gt;" style="text;html=1;align=center;verticalAlign=middle;whiteSpace=wrap;rounded=0;flipH=0;" parent="0YUcNJQHqm-_WN3B-KmG-2" vertex="1">
          <mxGeometry x="170" y="50" width="60" height="30" as="geometry" />
        </mxCell>
      </root>
    </mxGraphModel>
  </diagram>
</mxfile>
